<?xml version="1.0" encoding="UTF-8"?>
<!DOCTYPE svg PUBLIC "-//W3C//DTD SVG 1.1//EN" "http://www.w3.org/Graphics/SVG/1.1/DTD/svg11.dtd">
<!-- Creator: CorelDRAW X8 -->
<svg xmlns="http://www.w3.org/2000/svg" xml:space="preserve" width="5.76577in" height="5.76577in" version="1.1" style="shape-rendering:geometricPrecision; text-rendering:geometricPrecision; image-rendering:optimizeQuality; fill-rule:evenodd; clip-rule:evenodd"
viewBox="0 0 11414 11414"
 xmlns:xlink="http://www.w3.org/1999/xlink">
 <defs>
  <style type="text/css">
   <![CDATA[
    .fil0 {fill:#914E95}
   ]]>
  </style>
 </defs>
 <g id="Layer_x0020_1">
  <metadata id="CorelCorpID_0Corel-Layer"/>
  <g id="_2039378987104">
   <path class="fil0" d="M5195 789c750,-97 1517,36 2174,261 1682,574 3043,2171 3258,4133 316,2878 -1846,5162 -4394,5443 -2890,320 -5169,-1862 -5445,-4392 -118,-1076 133,-2136 651,-3027 802,-1378 2138,-2209 3756,-2418zm-5195 4596l0 667c54,132 49,444 77,605 411,2386 2299,4309 4725,4687 150,23 471,27 583,70l644 0c94,-36 710,-60 1143,-188 2100,-622 3412,-1974 4041,-4010 144,-466 154,-1048 201,-1164l0 -690c-53,-129 -51,-447 -76,-605 -139,-865 -505,-1675 -992,-2376l-613 -728c-1721,-1673 -3459,-1558 -3704,-1653l-644 0c-117,45 -447,47 -603,73 -1182,194 -2312,789 -3115,1594 -815,817 -1423,1976 -1598,3139 -23,157 -22,458 -69,579z"/>
   <path class="fil0" d="M4863 6439l-268 2606c-31,276 -109,603 61,795 184,208 481,190 665,-10 167,-182 2445,-3494 2815,-4006 77,-107 359,-484 388,-584 90,-305 -117,-556 -364,-586l-1973 -5c7,-472 133,-1103 181,-1596 39,-399 263,-1229 -5,-1483 -198,-186 -470,-143 -631,24 -113,117 -2495,3690 -2498,3694 -84,127 -299,403 -350,537 -98,258 53,493 251,570 251,97 1357,2 1728,44z"/>
  </g>
 </g>
</svg>
