<?xml version="1.0" encoding="UTF-8"?>
<!DOCTYPE svg PUBLIC "-//W3C//DTD SVG 1.1//EN" "http://www.w3.org/Graphics/SVG/1.1/DTD/svg11.dtd">
<!-- Creator: CorelDRAW X8 -->
<svg xmlns="http://www.w3.org/2000/svg" xml:space="preserve" width="2.80489in" height="3.08363in" version="1.1" style="shape-rendering:geometricPrecision; text-rendering:geometricPrecision; image-rendering:optimizeQuality; fill-rule:evenodd; clip-rule:evenodd"
viewBox="0 0 1946 2139"
 xmlns:xlink="http://www.w3.org/1999/xlink">
 <defs>
  <style type="text/css">
   <![CDATA[
    .fil2 {fill:#00C9FD}
    .fil1 {fill:#34404B}
    .fil4 {fill:#A1DCFD}
    .fil3 {fill:#C9DAF3}
    .fil0 {fill:#F4F4FD}
   ]]>
  </style>
 </defs>
 <g id="Layer_x0020_1">
  <metadata id="CorelCorpID_0Corel-Layer"/>
  <g id="_2039369655872">
   <path class="fil0" d="M1075 267c55,-1 108,-1 163,-4 51,-3 102,-8 152,-11 47,-3 108,-6 140,20 26,20 51,70 44,117 -20,153 -362,145 -513,138 3,51 16,123 46,164 17,23 25,22 35,30 159,0 412,-27 516,-132 41,-41 69,-87 70,-147 -27,12 -40,-7 -51,-25 -20,-34 -36,-90 -38,-128 -3,-47 2,-44 13,-69 -6,-4 -21,-26 -28,-34 -30,-36 -67,-68 -106,-94l-56 -32c-24,-9 -33,-14 -61,-24 -67,-22 -153,-36 -227,-36 -8,9 -14,13 -22,25 -42,56 -71,176 -77,242z"/>
   <path class="fil0" d="M1462 1612c16,-19 123,-196 137,-225 -17,-9 -42,-37 -54,-55 -52,-76 -53,-177 -34,-266 15,-69 56,-170 104,-220 39,-40 18,-24 62,-44 -13,-1 -28,-7 -42,-9 -50,-7 -86,-10 -140,-11 -18,-1 -18,-3 -49,-3 -18,0 -29,-2 -48,-2 -37,0 -66,-2 -102,-2 -4,7 -10,15 -15,22 -28,46 -62,126 -68,177 79,7 150,45 133,135 -8,42 -64,144 -85,191 -20,44 -32,71 1,100 57,51 186,136 200,212z"/>
   <path class="fil1" d="M1515 371c-26,2 -59,11 -87,15 -197,32 -466,41 -649,-15l182 9c130,3 243,3 374,0l180 -9zm-440 -104l-11 0c-72,0 -151,-20 -219,-13 -70,7 -109,56 -113,123 -5,72 54,105 113,123 69,21 131,20 205,26l11 1c151,7 493,15 513,-138 7,-47 -18,-97 -44,-117 -32,-26 -93,-23 -140,-20 -50,3 -101,8 -152,11 -55,3 -108,3 -163,4z"/>
   <path class="fil0" d="M832 1519c4,-45 69,-90 93,-114 30,-30 53,-37 31,-96 -20,-53 -49,-111 -73,-163 -53,-114 13,-172 138,-177 -1,-35 -8,-68 -16,-100 -8,-32 -18,-60 -26,-90 -106,0 -141,10 -227,44 -22,9 -39,20 -57,33 -37,27 -62,54 -88,92 -19,29 -55,82 -56,127 0,64 63,86 118,107 34,14 16,-3 51,85 18,42 36,83 54,126l53 119c0,0 0,1 1,2 0,0 0,1 0,1 3,4 1,1 4,4z"/>
   <path class="fil0" d="M681 224c-4,12 -17,32 -24,46 -8,16 -14,33 -19,52 -13,43 -16,78 -19,124 -2,67 4,98 50,144 31,32 76,55 122,73 90,34 230,58 332,58 -12,-12 -21,-17 -31,-33 -9,-14 -16,-29 -22,-46 -11,-35 -18,-76 -20,-116 -74,-6 -136,-5 -205,-26 -59,-18 -118,-51 -113,-123 4,-67 43,-116 113,-123 68,-7 147,13 219,13 6,-66 34,-186 74,-242 12,-17 15,-16 21,-25 -82,0 -152,14 -225,38 -21,8 -43,16 -62,26 -6,3 -9,4 -14,7 -64,31 -127,80 -167,140 -2,3 -3,4 -5,7l-5 6z"/>
   <path class="fil0" d="M1001 1002c34,-4 71,-2 105,-2 34,0 69,-1 103,3 185,18 89,142 41,241 -21,44 -54,96 -80,130 -95,124 -155,-26 -205,-125 -12,-25 -24,-47 -35,-72 -28,-67 -85,-158 71,-175zm-161 533c-2,8 -1,4 3,12l37 81c5,12 39,84 41,95 8,-3 15,-13 21,-19 9,-8 12,-10 22,-18 51,-39 121,-58 190,-50 98,11 166,66 211,111 1,0 1,-1 1,-1l89 -123c-4,-7 -6,-17 -11,-26 -29,-57 -70,-87 -115,-127 -88,-75 -123,-77 -85,-164 15,-34 30,-63 47,-95 15,-30 34,-62 42,-97 24,-96 -54,-124 -137,-132 -66,-5 -203,-6 -260,16 -97,37 -54,125 -25,185 92,191 91,166 -20,266 -12,11 -60,57 -51,86z"/>
   <path class="fil0" d="M196 957c19,46 18,64 -33,74 0,11 -4,29 -5,40 0,10 1,13 2,21 1,7 1,14 1,22 16,3 34,14 37,29 4,25 -15,36 -19,45 2,25 41,102 61,129 26,36 63,71 103,89 91,40 180,7 198,-87 12,-60 3,-109 -14,-166 -7,-23 -26,-76 -39,-89 -1,31 -12,54 -43,58 -32,3 -52,-22 -64,-36 -26,-28 -58,-116 -8,-138 -6,-9 -21,-16 -32,-20 -7,4 -32,33 -68,5 -5,-4 -11,-10 -18,-13 -12,4 -23,9 -33,15 -5,4 -9,7 -13,10 -5,5 -8,8 -13,12z"/>
   <path class="fil2" d="M1001 1002c-156,17 -99,108 -71,175 11,25 23,47 35,72 50,99 110,249 205,125 26,-34 59,-86 80,-130 48,-99 144,-223 -41,-241 -34,-4 -69,-3 -103,-3 -34,0 -71,-2 -105,2z"/>
   <path class="fil0" d="M1596 1681c6,29 14,52 26,76 15,28 26,40 46,58 9,-1 2,6 11,-18 15,-39 51,-87 98,-88 53,-1 82,53 88,98 3,23 -1,16 5,22 62,-45 61,-79 73,-91 0,-22 -10,-93 -14,-114 -6,-38 -14,-74 -25,-107 -17,-57 -53,-139 -107,-155 -37,-10 -70,18 -87,38 -49,59 -79,152 -101,227 -4,14 -12,40 -13,54z"/>
   <path class="fil0" d="M1918 1080c-14,-63 -112,-219 -180,-235 -35,-7 -47,-8 -75,10 -120,75 -174,436 -57,491 -12,-63 182,-242 255,-271 27,-10 39,-11 57,5z"/>
   <path class="fil0" d="M938 1755c13,23 35,60 51,80 23,29 20,23 43,45 45,44 111,53 167,28 25,-12 57,-35 78,-54l43 -45c4,-5 6,-8 10,-13 3,-4 7,-10 10,-14 -13,-10 -27,-40 -76,-71 -30,-19 -70,-32 -112,-37 -68,-7 -151,13 -197,62 -6,6 -11,14 -17,19z"/>
   <path class="fil3" d="M1599 1387l15 -24c8,-14 7,-11 22,-17 73,-28 226,-144 269,-207 19,-28 18,-37 13,-59 -18,-16 -30,-15 -57,-5 -73,29 -267,208 -255,271 -117,-55 -63,-416 57,-491 28,-18 40,-17 75,-10 -6,-13 -15,-20 -26,-26 -13,-9 -21,-11 -35,-17 -44,20 -23,4 -62,44 -48,50 -89,151 -104,220 -19,89 -18,190 34,266 12,18 37,46 54,55z"/>
   <path class="fil0" d="M1582 1771c-3,36 -3,66 -1,102 2,36 8,56 16,90 2,12 7,20 13,31 2,5 4,9 7,14 3,5 6,8 10,13 14,12 23,25 48,35 48,19 95,12 143,-1 32,-10 41,-26 56,-31 58,-54 72,-141 72,-218l-3 -41c-5,7 -10,17 -14,24 -26,36 -35,36 -62,56 -9,46 -10,65 -33,99 -14,20 -42,50 -78,51 -58,2 -85,-57 -90,-106 -3,-23 2,-39 1,-61 -28,-12 -67,-68 -77,-112 -7,8 -6,44 -8,55z"/>
   <path class="fil0" d="M991 779c15,61 41,119 41,190 58,0 112,0 169,2 8,-53 32,-106 56,-153 7,-14 20,-31 25,-43 -25,0 -49,0 -74,0 -25,0 -45,2 -72,2 -24,0 -49,0 -74,0 -27,0 -47,2 -71,2z"/>
   <path class="fil3" d="M255 920c7,3 13,9 18,13 36,28 61,-1 68,-5 6,-26 11,-15 0,-70 -4,-22 -12,-46 -21,-63 -10,-20 -18,-34 -32,-51 -11,-13 -32,-30 -49,-36 -29,-11 -44,5 -49,29 -7,35 18,100 33,130 18,36 10,22 32,53z"/>
   <path class="fil4" d="M991 779l-12 0c8,30 18,58 26,90 8,32 15,65 16,100 -125,5 -191,63 -138,177 24,52 53,110 73,163 22,59 -1,66 -31,96 -24,24 -89,69 -93,114 0,6 -1,6 1,9 6,12 0,3 7,7 -9,-29 39,-75 51,-86 111,-100 112,-75 20,-266 -29,-60 -72,-148 25,-185 57,-22 194,-21 260,-16 83,8 161,36 137,132 -8,35 -27,67 -42,97 -17,32 -32,61 -47,95 -38,87 -3,89 85,164 45,40 86,70 115,127 5,9 7,19 11,26 4,-5 5,-6 7,-11 -14,-76 -143,-161 -200,-212 -33,-29 -21,-56 -1,-100 21,-47 77,-149 85,-191 17,-90 -54,-128 -133,-135 6,-51 40,-131 68,-177 5,-7 11,-15 15,-22l-14 0c-5,12 -18,29 -25,43 -24,47 -48,100 -56,153 -57,-2 -111,-2 -169,-2 0,-71 -26,-129 -41,-190z"/>
   <path class="fil3" d="M163 1031c51,-10 52,-28 33,-74l-9 -10c-3,-5 -5,-8 -9,-12 -5,-6 -14,-16 -20,-21 -16,-13 -29,-25 -45,-36 -122,-81 -149,27 -62,101 29,24 74,52 112,52z"/>
   <path class="fil3" d="M1597 1963c-8,-34 -14,-54 -16,-90 -2,-36 -2,-66 1,-102 -9,4 -27,27 -39,39l-109 125c-33,47 -14,79 49,70 42,-6 82,-26 114,-42z"/>
   <path class="fil2" d="M1700 1831l-3 20c2,28 1,49 12,71 9,17 24,35 51,33 41,-2 70,-55 74,-100l0 -22c0,-41 -23,-91 -67,-83 -20,3 -36,19 -45,31 -12,17 -15,29 -22,50z"/>
   <path class="fil3" d="M373 948c-50,22 -18,110 8,138 12,14 32,39 64,36 31,-4 42,-27 43,-58 -7,-40 -12,-62 -32,-87 -15,-19 -49,-48 -83,-29z"/>
   <path class="fil3" d="M1874 2024c-15,5 -24,21 -56,31 -48,13 -95,20 -143,1 -25,-10 -34,-23 -48,-35 -12,7 -63,64 -48,94 14,28 50,29 78,15 3,-2 9,-7 11,-7 7,-3 5,-1 14,2 20,7 49,0 63,-7 13,-7 8,-9 25,-7 27,3 63,-17 79,-35 5,-6 10,-12 15,-22 5,-11 6,-18 10,-30z"/>
   <path class="fil3" d="M921 1723l17 32c6,-5 11,-13 17,-19 46,-49 129,-69 197,-62 42,5 82,18 112,37 49,31 63,61 76,71l25 -35c-45,-45 -113,-100 -211,-111 -69,-8 -139,11 -190,50 -10,8 -13,10 -22,18 -6,6 -13,16 -21,19z"/>
   <path class="fil3" d="M179 1188c4,-9 23,-20 19,-45 -3,-15 -21,-26 -37,-29 -47,-14 -190,1 -154,66 13,23 46,39 82,39 42,0 65,-14 90,-31z"/>
   <path class="fil1" d="M1652 220c-11,25 -16,22 -13,69 2,38 18,94 38,128 11,18 24,37 51,25 14,-21 16,-36 12,-66 -5,-45 -23,-119 -57,-150 -11,-9 -15,-10 -31,-6z"/>
   <path class="fil2" d="M1515 371l-180 9c-131,3 -244,3 -374,0l-182 -9c183,56 452,47 649,15 28,-4 61,-13 87,-15z"/>
   <path class="fil3" d="M1867 1845c-11,2 -19,9 -33,10 -4,45 -33,98 -74,100 -27,2 -42,-16 -51,-33 -11,-22 -10,-43 -12,-71 -5,-12 -20,-15 -30,-23 1,22 -4,38 -1,61 5,49 32,108 90,106 36,-1 64,-31 78,-51 23,-34 24,-53 33,-99z"/>
   <path class="fil3" d="M1668 1815c4,5 2,2 6,6 6,5 2,2 8,6 7,4 11,7 18,4 7,-21 10,-33 22,-50 9,-12 25,-28 45,-31 44,-8 67,42 67,83l5 12 24 -11c0,0 1,0 1,-1l6 -4c-6,-6 -2,1 -5,-22 -6,-45 -35,-99 -88,-98 -47,1 -83,49 -98,88 -9,24 -2,17 -11,18z"/>
   <path class="fil1" d="M619 446c3,-46 6,-81 19,-124 5,-19 11,-36 19,-52 7,-14 20,-34 24,-46 -21,-15 -33,-10 -52,20 -30,44 -76,202 -10,202z"/>
   <path class="fil4" d="M1064 267l11 0c6,-66 35,-186 77,-242 8,-12 14,-16 22,-25l-15 0c-6,9 -9,8 -21,25 -40,56 -68,176 -74,242z"/>
   <path class="fil4" d="M1590 1716c10,44 49,100 77,112 10,8 25,11 30,23l3 -20c-7,3 -11,0 -18,-4 -6,-4 -2,-1 -8,-6 -4,-4 -2,-1 -6,-6 -20,-18 -31,-30 -46,-58 -12,-24 -20,-47 -26,-76l-4 16c-2,6 -3,10 -2,19z"/>
   <path class="fil4" d="M1123 721l19 0c-10,-8 -18,-7 -35,-30 -30,-41 -43,-113 -46,-164l-11 -1c2,40 9,81 20,116 6,17 13,32 22,46 10,16 19,21 31,33z"/>
   <path class="fil4" d="M1870 1829l-6 4c0,1 -1,1 -1,1l-24 11 -5 -12 0 22c14,-1 22,-8 33,-10 27,-20 36,-20 62,-56 4,-7 9,-17 14,-24l0 -27c-12,12 -11,46 -73,91z"/>
  </g>
 </g>
</svg>
