<?xml version="1.0" encoding="UTF-8"?>
<!DOCTYPE svg PUBLIC "-//W3C//DTD SVG 1.1//EN" "http://www.w3.org/Graphics/SVG/1.1/DTD/svg11.dtd">
<!-- Creator: CorelDRAW X8 -->
<svg xmlns="http://www.w3.org/2000/svg" xml:space="preserve" width="6.81667in" height="6.81667in" version="1.1" style="shape-rendering:geometricPrecision; text-rendering:geometricPrecision; image-rendering:optimizeQuality; fill-rule:evenodd; clip-rule:evenodd"
viewBox="0 0 5925 5925"
 xmlns:xlink="http://www.w3.org/1999/xlink">
 <defs>
  <style type="text/css">
   <![CDATA[
    .fil0 {fill:#001E2B}
    .fil1 {fill:#00EC64}
   ]]>
  </style>
 </defs>
 <g id="Layer_x0020_1">
  <metadata id="CorelCorpID_0Corel-Layer"/>
  <g id="_2004277688720">
   <polygon class="fil0" points="0,5925 5925,5925 5925,0 0,0 "/>
   <path class="fil1" d="M2903 3540l2 -14 43 -948 2 -15 -1 -22 -3 -60 17 -106c19,30 17,59 16,107l-2 56c-5,315 30,682 44,1002 8,170 16,339 24,507 11,248 57,369 -82,429 -42,-23 -62,-53 -98,-91l38 -845zm119 1456l6 -4 9 -89 3 -15 26 -296 2 -15c6,-65 10,-66 58,-92l14 -11 267 -267 10 -15c125,-164 318,-422 384,-666l11 -15 21 -74 8 -15c79,-306 92,-483 58,-815l-5 -15 -23 -133 -7 -15 -7 -44 -9 -15 -21 -89 -9 -15 -5 -29 -10 -15 -7 -30 -10 -15 -17 -59 -13 -15 -30 -89 -8 -21 -7 -8 -8 -21 -7 -9 -7 -21 -8 -8 -7 -22 -8 -8 -7 -21 -8 -9 -7 -21 -7 -8 -8 -19 -79 -129 -10 -21 -110 -157 -8 -16 -33 -43 -12 -17 -34 -43 -10 -15c-24,-22 -44,-40 -63,-74l-11 -14 -49 -60 -10 -14 -48 -60 -12 -15 -35 -44 -9 -15 -36 -44 -8 -15 -36 -44 -9 -16 -44 -42 -12 -2 -322 422c-101,115 -210,277 -298,428 -437,759 -448,1519 55,2246 121,175 143,180 260,302 261,272 192,54 251,660l125 5zm-76 -2515l33 1c1,-48 3,-77 -16,-107l-17 106zm3 60l28 -3 2 -56 -33 -1 3 60z"/>
  </g>
 </g>
</svg>
